<svg width="514" height="350" viewBox="0 0 514 350" fill="none" xmlns="http://www.w3.org/2000/svg">
<path d="M81.83 32.7539H78.024V38.8476H81.83V32.7539Z" fill="#6C63FF"/>
<path d="M94.7706 31.2305H90.9645V37.3242H94.7706V31.2305Z" fill="#6C63FF"/>
<path d="M101.621 31.2305H97.8154V37.3242H101.621V31.2305Z" fill="#6C63FF"/>
<path d="M101.621 49.5115H97.8154V55.6052H101.621V49.5115Z" fill="#6C63FF"/>
<path d="M109.234 40.3708H105.427V46.4646H109.234V40.3708Z" fill="#6C63FF"/>
<path d="M109.234 50.2732H105.427V56.3669H109.234V50.2732Z" fill="#6C63FF"/>
<path d="M101.621 69.3162H97.8154V75.4099H101.621V69.3162Z" fill="#6C63FF"/>
<path d="M109.234 79.2183H105.427V85.312H109.234V79.2183Z" fill="#6C63FF"/>
<path d="M101.621 116.542H97.8154V122.636H101.621V116.542Z" fill="#6C63FF"/>
<path d="M94.7706 79.2183H90.9645V85.312H94.7706V79.2183Z" fill="#6C63FF"/>
<path d="M81.83 42.656H78.024V48.7497H81.83V42.656Z" fill="#6C63FF"/>
<path d="M81.83 137.87H78.024V143.964H81.83V137.87Z" fill="#6C63FF"/>
<path d="M81.83 157.675H78.024V163.769H81.83V157.675Z" fill="#6C63FF"/>
<path d="M81.83 167.577H78.024V173.671H81.83V167.577Z" fill="#6C63FF"/>
<path d="M81.83 53.3201H76.5015V54.0818H81.83V53.3201Z" fill="#6C63FF"/>
<path d="M102.383 62.4607H97.0542V63.2224H102.383V62.4607Z" fill="#6C63FF"/>
<path d="M81.83 102.07H76.5015V102.832H81.83V102.07Z" fill="#6C63FF"/>
<path d="M81.83 110.449H76.5015V111.21H81.83V110.449Z" fill="#6C63FF"/>
<path d="M102.383 159.198H97.0542V159.96H102.383V159.198Z" fill="#6C63FF"/>
<path d="M96.293 177.48H90.9645V178.241H96.293V177.48Z" fill="#6C63FF"/>
<path d="M78.0239 60.1758V61.699H79.5461V64.7459H78.0239V66.2692H81.83V60.1758H78.0239Z" fill="#6C63FF"/>
<path d="M90.9647 49.5117V51.0349H92.4869V54.0819H90.9647V55.6051H94.7708V49.5117H90.9647Z" fill="#6C63FF"/>
<path d="M105.428 59.4136V60.9373H106.95V63.9842H105.428V65.5075H109.234V59.4136H105.428Z" fill="#6C63FF"/>
<path d="M105.428 89.1208V90.6441H106.95V93.691H105.428V95.2142H109.234V89.1208H105.428Z" fill="#6C63FF"/>
<path d="M105.428 99.0229V100.547H106.95V103.594H105.428V105.117H109.234V99.0229H105.428Z" fill="#6C63FF"/>
<path d="M105.428 68.5544V70.0777H106.95V73.1246H105.428V74.6483H109.234V68.5544H105.428Z" fill="#6C63FF"/>
<path d="M97.8152 40.3708V41.8946H99.3379V44.941H97.8152V46.4647H101.622V40.3708H97.8152Z" fill="#6C63FF"/>
<path d="M101.621 89.1206H97.8154V95.2143H101.621V89.1206Z" fill="#6C63FF"/>
<path d="M101.621 107.402H97.8154V113.496H101.621V107.402Z" fill="#6C63FF"/>
<path d="M97.8152 98.2612V99.7845H99.3379V102.831H97.8152V104.355H101.622V98.2612H97.8152Z" fill="#6C63FF"/>
<path d="M90.9647 59.4136V60.9373H92.4869V63.9842H90.9647V65.5075H94.7708V59.4136H90.9647Z" fill="#6C63FF"/>
<path d="M90.9647 69.3159V70.8396H92.4869V73.8861H90.9647V75.4098H94.7708V69.3159H90.9647Z" fill="#6C63FF"/>
<path d="M94.7706 99.0229H90.9645V105.117H94.7706V99.0229Z" fill="#6C63FF"/>
<path d="M90.9647 89.1208V90.6441H92.4869V93.691H90.9647V95.2142H94.7708V89.1208H90.9647Z" fill="#6C63FF"/>
<path d="M94.7706 118.828H90.9645V124.921H94.7706V118.828Z" fill="#6C63FF"/>
<path d="M90.9647 108.925V110.449H92.4869V113.495H90.9647V115.019H94.7708V108.925H90.9647Z" fill="#6C63FF"/>
<path d="M94.7706 138.632H90.9645V144.726H94.7706V138.632Z" fill="#6C63FF"/>
<path d="M101.621 137.109H97.8154V143.202H101.621V137.109Z" fill="#6C63FF"/>
<path d="M90.9647 128.73V130.253H92.4869V133.3H90.9647V134.824H94.7708V128.73H90.9647Z" fill="#6C63FF"/>
<path d="M105.428 128.73V130.253H106.95V133.3H105.428V134.824H109.234V128.73H105.428Z" fill="#6C63FF"/>
<path d="M148.055 40.3708H144.249V46.4646H148.055V40.3708Z" fill="#6C63FF"/>
<path d="M148.055 50.2732H144.249V56.3669H148.055V50.2732Z" fill="#6C63FF"/>
<path d="M148.055 79.2183H144.249V85.312H148.055V79.2183Z" fill="#6C63FF"/>
<path d="M144.249 59.4136V60.9373H145.772V63.9842H144.249V65.5075H148.055V59.4136H144.249Z" fill="#6C63FF"/>
<path d="M144.249 89.1208V90.6441H145.772V93.691H144.249V95.2142H148.055V89.1208H144.249Z" fill="#6C63FF"/>
<path d="M144.249 99.0229V100.547H145.772V103.594H144.249V105.117H148.055V99.0229H144.249Z" fill="#6C63FF"/>
<path d="M144.249 68.5544V70.0777H145.772V73.1246H144.249V74.6483H148.055V68.5544H144.249Z" fill="#6C63FF"/>
<path d="M144.249 128.73V130.253H145.772V133.3H144.249V134.824H148.055V128.73H144.249Z" fill="#6C63FF"/>
<path d="M94.7706 158.437H90.9645V164.531H94.7706V158.437Z" fill="#6C63FF"/>
<path d="M101.621 147.011H97.8154V153.105H101.621V147.011Z" fill="#6C63FF"/>
<path d="M94.7706 184.335H90.9645V190.429H94.7706V184.335Z" fill="#6C63FF"/>
<path d="M101.621 166.054H97.8154V172.148H101.621V166.054Z" fill="#6C63FF"/>
<path d="M90.9647 148.534V150.058H92.4869V153.105H90.9647V154.628H94.7708V148.534H90.9647Z" fill="#6C63FF"/>
<path d="M90.9647 194.999V196.522H92.4869V199.569H90.9647V201.093H94.7708V194.999H90.9647Z" fill="#6C63FF"/>
<path d="M136.637 31.2305H132.831V37.3242H136.637V31.2305Z" fill="#6C63FF"/>
<path d="M136.637 79.2183H132.831V85.312H136.637V79.2183Z" fill="#6C63FF"/>
<path d="M138.16 177.48H132.831V178.241H138.16V177.48Z" fill="#6C63FF"/>
<path d="M132.831 49.5117V51.0349H134.354V54.0819H132.831V55.6051H136.637V49.5117H132.831Z" fill="#6C63FF"/>
<path d="M132.831 59.4136V60.9373H134.354V63.9842H132.831V65.5075H136.637V59.4136H132.831Z" fill="#6C63FF"/>
<path d="M132.831 69.3159V70.8396H134.354V73.8861H132.831V75.4098H136.637V69.3159H132.831Z" fill="#6C63FF"/>
<path d="M136.637 99.0229H132.831V105.117H136.637V99.0229Z" fill="#6C63FF"/>
<path d="M132.831 89.1208V90.6441H134.354V93.691H132.831V95.2142H136.637V89.1208H132.831Z" fill="#6C63FF"/>
<path d="M136.637 118.828H132.831V124.921H136.637V118.828Z" fill="#6C63FF"/>
<path d="M132.831 108.925V110.449H134.354V113.495H132.831V115.019H136.637V108.925H132.831Z" fill="#6C63FF"/>
<path d="M136.637 138.632H132.831V144.726H136.637V138.632Z" fill="#6C63FF"/>
<path d="M132.831 128.73V130.253H134.354V133.3H132.831V134.824H136.637V128.73H132.831Z" fill="#6C63FF"/>
<path d="M136.637 158.437H132.831V164.531H136.637V158.437Z" fill="#6C63FF"/>
<path d="M136.637 184.335H132.831V190.429H136.637V184.335Z" fill="#6C63FF"/>
<path d="M132.831 148.534V150.058H134.354V153.105H132.831V154.628H136.637V148.534H132.831Z" fill="#6C63FF"/>
<path d="M132.831 194.999V196.522H134.354V199.569H132.831V201.093H136.637V194.999H132.831Z" fill="#6C63FF"/>
<path d="M154.906 31.2305H151.1V37.3242H154.906V31.2305Z" fill="#6C63FF"/>
<path d="M154.906 79.2183H151.1V85.312H154.906V79.2183Z" fill="#6C63FF"/>
<path d="M156.429 177.48H151.1V178.241H156.429V177.48Z" fill="#6C63FF"/>
<path d="M151.1 49.5117V51.0349H152.623V54.0819H151.1V55.6051H154.906V49.5117H151.1Z" fill="#6C63FF"/>
<path d="M151.1 59.4136V60.9373H152.623V63.9842H151.1V65.5075H154.906V59.4136H151.1Z" fill="#6C63FF"/>
<path d="M151.1 69.3159V70.8396H152.623V73.8861H151.1V75.4098H154.906V69.3159H151.1Z" fill="#6C63FF"/>
<path d="M154.906 99.0229H151.1V105.117H154.906V99.0229Z" fill="#6C63FF"/>
<path d="M151.1 89.1208V90.6441H152.623V93.691H151.1V95.2142H154.906V89.1208H151.1Z" fill="#6C63FF"/>
<path d="M154.906 118.828H151.1V124.921H154.906V118.828Z" fill="#6C63FF"/>
<path d="M151.1 108.925V110.449H152.623V113.495H151.1V115.019H154.906V108.925H151.1Z" fill="#6C63FF"/>
<path d="M154.906 138.632H151.1V144.726H154.906V138.632Z" fill="#6C63FF"/>
<path d="M151.1 128.73V130.253H152.623V133.3H151.1V134.824H154.906V128.73H151.1Z" fill="#6C63FF"/>
<path d="M154.906 158.437H151.1V164.531H154.906V158.437Z" fill="#6C63FF"/>
<path d="M154.906 184.335H151.1V190.429H154.906V184.335Z" fill="#6C63FF"/>
<path d="M151.1 148.534V150.058H152.623V153.105H151.1V154.628H154.906V148.534H151.1Z" fill="#6C63FF"/>
<path d="M151.1 194.999V196.522H152.623V199.569H151.1V201.093H154.906V194.999H151.1Z" fill="#6C63FF"/>
<path d="M97.8152 184.335V185.858H99.3379V188.905H97.8152V190.429H101.622V184.335H97.8152Z" fill="#6C63FF"/>
<path d="M97.8152 194.238V195.761H99.3379V198.808H97.8152V200.331H101.622V194.238H97.8152Z" fill="#6C63FF"/>
<path d="M78.0239 79.2185V80.7417H79.5461V83.7887H78.0239V85.3124H81.83V79.2185H78.0239Z" fill="#6C63FF"/>
<path d="M78.0239 118.066V119.589H79.5461V122.636H78.0239V124.16H81.83V118.066H78.0239Z" fill="#6C63FF"/>
<path d="M78.0239 127.968V129.492H79.5461V132.539H78.0239V134.062H81.83V127.968H78.0239Z" fill="#6C63FF"/>
<path d="M78.0239 147.773V149.296H79.5461V152.343H78.0239V153.866H81.83V147.773H78.0239Z" fill="#6C63FF"/>
<path d="M78.0239 175.956V177.48H79.5461V180.527H78.0239V182.05H81.83V175.956H78.0239Z" fill="#6C63FF"/>
<path d="M78.0239 184.335V185.858H79.5461V188.905H78.0239V190.429H81.83V184.335H78.0239Z" fill="#6C63FF"/>
<path d="M121.413 32.7539H117.607V38.8476H121.413V32.7539Z" fill="#6C63FF"/>
<path d="M121.413 42.656H117.607V48.7497H121.413V42.656Z" fill="#6C63FF"/>
<path d="M121.413 53.3201H116.084V54.0818H121.413V53.3201Z" fill="#6C63FF"/>
<path d="M121.413 102.07H116.084V102.832H121.413V102.07Z" fill="#6C63FF"/>
<path d="M121.413 110.449H116.084V111.21H121.413V110.449Z" fill="#6C63FF"/>
<path d="M117.607 60.1758V61.699H119.129V64.7459H117.607V66.2692H121.413V60.1758H117.607Z" fill="#6C63FF"/>
<path d="M117.607 79.2185V80.7417H119.129V83.7887H117.607V85.3124H121.413V79.2185H117.607Z" fill="#6C63FF"/>
<path d="M117.607 118.066V119.589H119.129V122.636H117.607V124.16H121.413V118.066H117.607Z" fill="#6C63FF"/>
<path d="M164.802 99.0229H160.996V105.117H164.802V99.0229Z" fill="#6C63FF"/>
<path d="M164.802 108.925H160.996V115.019H164.802V108.925Z" fill="#6C63FF"/>
<path d="M164.802 119.589H159.473V120.351H164.802V119.589Z" fill="#6C63FF"/>
<path d="M164.802 168.339H159.473V169.101H164.802V168.339Z" fill="#6C63FF"/>
<path d="M164.802 176.718H159.473V177.48H164.802V176.718Z" fill="#6C63FF"/>
<path d="M160.996 126.445V127.968H162.518V131.015H160.996V132.539H164.802V126.445H160.996Z" fill="#6C63FF"/>
<path d="M160.996 145.488V147.011H162.518V150.058H160.996V151.581H164.802V145.488H160.996Z" fill="#6C63FF"/>
<path d="M160.996 184.335V185.858H162.518V188.905H160.996V190.429H164.802V184.335H160.996Z" fill="#6C63FF"/>
<path d="M176.981 32.7539H173.175V38.8476H176.981V32.7539Z" fill="#6C63FF"/>
<path d="M189.922 31.2305H186.116V37.3242H189.922V31.2305Z" fill="#6C63FF"/>
<path d="M196.773 31.2305H192.967V37.3242H196.773V31.2305Z" fill="#6C63FF"/>
<path d="M196.773 49.5115H192.967V55.6052H196.773V49.5115Z" fill="#6C63FF"/>
<path d="M204.385 40.3708H200.579V46.4646H204.385V40.3708Z" fill="#6C63FF"/>
<path d="M204.385 50.2732H200.579V56.3669H204.385V50.2732Z" fill="#6C63FF"/>
<path d="M196.773 69.3162H192.967V75.4099H196.773V69.3162Z" fill="#6C63FF"/>
<path d="M204.385 79.2183H200.579V85.312H204.385V79.2183Z" fill="#6C63FF"/>
<path d="M196.773 116.542H192.967V122.636H196.773V116.542Z" fill="#6C63FF"/>
<path d="M189.922 79.2183H186.116V85.312H189.922V79.2183Z" fill="#6C63FF"/>
<path d="M176.981 42.656H173.175V48.7497H176.981V42.656Z" fill="#6C63FF"/>
<path d="M176.981 137.87H173.175V143.964H176.981V137.87Z" fill="#6C63FF"/>
<path d="M176.981 157.675H173.175V163.769H176.981V157.675Z" fill="#6C63FF"/>
<path d="M176.981 167.577H173.175V173.671H176.981V167.577Z" fill="#6C63FF"/>
<path d="M176.981 53.3201H171.653V54.0818H176.981V53.3201Z" fill="#6C63FF"/>
<path d="M197.534 62.4607H192.205V63.2224H197.534V62.4607Z" fill="#6C63FF"/>
<path d="M176.981 102.07H171.653V102.832H176.981V102.07Z" fill="#6C63FF"/>
<path d="M176.981 110.449H171.653V111.21H176.981V110.449Z" fill="#6C63FF"/>
<path d="M197.534 159.198H192.205V159.96H197.534V159.198Z" fill="#6C63FF"/>
<path d="M191.444 177.48H186.116V178.241H191.444V177.48Z" fill="#6C63FF"/>
<path d="M173.175 60.1758V61.699H174.698V64.7459H173.175V66.2692H176.981V60.1758H173.175Z" fill="#6C63FF"/>
<path d="M186.116 49.5117V51.0349H187.638V54.0819H186.116V55.6051H189.922V49.5117H186.116Z" fill="#6C63FF"/>
<path d="M200.579 59.4136V60.9373H202.101V63.9842H200.579V65.5075H204.385V59.4136H200.579Z" fill="#6C63FF"/>
<path d="M200.579 89.1208V90.6441H202.101V93.691H200.579V95.2142H204.385V89.1208H200.579Z" fill="#6C63FF"/>
<path d="M200.579 99.0229V100.547H202.101V103.594H200.579V105.117H204.385V99.0229H200.579Z" fill="#6C63FF"/>
<path d="M200.579 68.5544V70.0777H202.101V73.1246H200.579V74.6483H204.385V68.5544H200.579Z" fill="#6C63FF"/>
<path d="M192.967 40.3708V41.8946H194.489V44.941H192.967V46.4647H196.773V40.3708H192.967Z" fill="#6C63FF"/>
<path d="M196.773 89.1206H192.967V95.2143H196.773V89.1206Z" fill="#6C63FF"/>
<path d="M196.773 107.402H192.967V113.496H196.773V107.402Z" fill="#6C63FF"/>
<path d="M192.967 98.2612V99.7845H194.489V102.831H192.967V104.355H196.773V98.2612H192.967Z" fill="#6C63FF"/>
<path d="M186.116 59.4136V60.9373H187.638V63.9842H186.116V65.5075H189.922V59.4136H186.116Z" fill="#6C63FF"/>
<path d="M186.116 69.3159V70.8396H187.638V73.8861H186.116V75.4098H189.922V69.3159H186.116Z" fill="#6C63FF"/>
<path d="M189.922 99.0229H186.116V105.117H189.922V99.0229Z" fill="#6C63FF"/>
<path d="M186.116 89.1208V90.6441H187.638V93.691H186.116V95.2142H189.922V89.1208H186.116Z" fill="#6C63FF"/>
<path d="M189.922 118.828H186.116V124.921H189.922V118.828Z" fill="#6C63FF"/>
<path d="M186.116 108.925V110.449H187.638V113.495H186.116V115.019H189.922V108.925H186.116Z" fill="#6C63FF"/>
<path d="M189.922 138.632H186.116V144.726H189.922V138.632Z" fill="#6C63FF"/>
<path d="M196.773 137.109H192.967V143.202H196.773V137.109Z" fill="#6C63FF"/>
<path d="M186.116 128.73V130.253H187.638V133.3H186.116V134.824H189.922V128.73H186.116Z" fill="#6C63FF"/>
<path d="M200.579 128.73V130.253H202.101V133.3H200.579V134.824H204.385V128.73H200.579Z" fill="#6C63FF"/>
<path d="M243.206 40.3708H239.4V46.4646H243.206V40.3708Z" fill="#6C63FF"/>
<path d="M243.206 50.2732H239.4V56.3669H243.206V50.2732Z" fill="#6C63FF"/>
<path d="M243.206 79.2183H239.4V85.312H243.206V79.2183Z" fill="#6C63FF"/>
<path d="M239.401 59.4136V60.9373H240.923V63.9842H239.401V65.5075H243.207V59.4136H239.401Z" fill="#6C63FF"/>
<path d="M239.401 89.1208V90.6441H240.923V93.691H239.401V95.2142H243.207V89.1208H239.401Z" fill="#6C63FF"/>
<path d="M239.401 99.0229V100.547H240.923V103.594H239.401V105.117H243.207V99.0229H239.401Z" fill="#6C63FF"/>
<path d="M239.401 68.5544V70.0777H240.923V73.1246H239.401V74.6483H243.207V68.5544H239.401Z" fill="#6C63FF"/>
<path d="M239.401 128.73V130.253H240.923V133.3H239.401V134.824H243.207V128.73H239.401Z" fill="#6C63FF"/>
<path d="M189.922 158.437H186.116V164.531H189.922V158.437Z" fill="#6C63FF"/>
<path d="M196.773 147.011H192.967V153.105H196.773V147.011Z" fill="#6C63FF"/>
<path d="M189.922 184.335H186.116V190.429H189.922V184.335Z" fill="#6C63FF"/>
<path d="M196.773 166.054H192.967V172.148H196.773V166.054Z" fill="#6C63FF"/>
<path d="M186.116 148.534V150.058H187.638V153.105H186.116V154.628H189.922V148.534H186.116Z" fill="#6C63FF"/>
<path d="M186.116 194.999V196.522H187.638V199.569H186.116V201.093H189.922V194.999H186.116Z" fill="#6C63FF"/>
<path d="M231.788 31.2305H227.982V37.3242H231.788V31.2305Z" fill="#6C63FF"/>
<path d="M231.788 79.2183H227.982V85.312H231.788V79.2183Z" fill="#6C63FF"/>
<path d="M233.311 177.48H227.982V178.241H233.311V177.48Z" fill="#6C63FF"/>
<path d="M227.982 49.5117V51.0349H229.505V54.0819H227.982V55.6051H231.788V49.5117H227.982Z" fill="#6C63FF"/>
<path d="M227.982 59.4136V60.9373H229.505V63.9842H227.982V65.5075H231.788V59.4136H227.982Z" fill="#6C63FF"/>
<path d="M227.982 69.3159V70.8396H229.505V73.8861H227.982V75.4098H231.788V69.3159H227.982Z" fill="#6C63FF"/>
<path d="M231.788 99.0229H227.982V105.117H231.788V99.0229Z" fill="#6C63FF"/>
<path d="M227.982 89.1208V90.6441H229.505V93.691H227.982V95.2142H231.788V89.1208H227.982Z" fill="#6C63FF"/>
<path d="M231.788 118.828H227.982V124.921H231.788V118.828Z" fill="#6C63FF"/>
<path d="M227.982 108.925V110.449H229.505V113.495H227.982V115.019H231.788V108.925H227.982Z" fill="#6C63FF"/>
<path d="M231.788 138.632H227.982V144.726H231.788V138.632Z" fill="#6C63FF"/>
<path d="M227.982 128.73V130.253H229.505V133.3H227.982V134.824H231.788V128.73H227.982Z" fill="#6C63FF"/>
<path d="M231.788 158.437H227.982V164.531H231.788V158.437Z" fill="#6C63FF"/>
<path d="M231.788 184.335H227.982V190.429H231.788V184.335Z" fill="#6C63FF"/>
<path d="M227.982 148.534V150.058H229.505V153.105H227.982V154.628H231.788V148.534H227.982Z" fill="#6C63FF"/>
<path d="M227.982 194.999V196.522H229.505V199.569H227.982V201.093H231.788V194.999H227.982Z" fill="#6C63FF"/>
<path d="M250.057 31.2305H246.251V37.3242H250.057V31.2305Z" fill="#6C63FF"/>
<path d="M250.057 79.2183H246.251V85.312H250.057V79.2183Z" fill="#6C63FF"/>
<path d="M251.58 177.48H246.251V178.241H251.58V177.48Z" fill="#6C63FF"/>
<path d="M246.251 49.5117V51.0349H247.774V54.0819H246.251V55.6051H250.057V49.5117H246.251Z" fill="#6C63FF"/>
<path d="M246.251 59.4136V60.9373H247.774V63.9842H246.251V65.5075H250.057V59.4136H246.251Z" fill="#6C63FF"/>
<path d="M246.251 69.3159V70.8396H247.774V73.8861H246.251V75.4098H250.057V69.3159H246.251Z" fill="#6C63FF"/>
<path d="M250.057 99.0229H246.251V105.117H250.057V99.0229Z" fill="#6C63FF"/>
<path d="M246.251 89.1208V90.6441H247.774V93.691H246.251V95.2142H250.057V89.1208H246.251Z" fill="#6C63FF"/>
<path d="M250.057 118.828H246.251V124.921H250.057V118.828Z" fill="#6C63FF"/>
<path d="M246.251 108.925V110.449H247.774V113.495H246.251V115.019H250.057V108.925H246.251Z" fill="#6C63FF"/>
<path d="M250.057 138.632H246.251V144.726H250.057V138.632Z" fill="#6C63FF"/>
<path d="M246.251 128.73V130.253H247.774V133.3H246.251V134.824H250.057V128.73H246.251Z" fill="#6C63FF"/>
<path d="M250.057 158.437H246.251V164.531H250.057V158.437Z" fill="#6C63FF"/>
<path d="M250.057 184.335H246.251V190.429H250.057V184.335Z" fill="#6C63FF"/>
<path d="M246.251 148.534V150.058H247.774V153.105H246.251V154.628H250.057V148.534H246.251Z" fill="#6C63FF"/>
<path d="M246.251 194.999V196.522H247.774V199.569H246.251V201.093H250.057V194.999H246.251Z" fill="#6C63FF"/>
<path d="M192.967 184.335V185.858H194.489V188.905H192.967V190.429H196.773V184.335H192.967Z" fill="#6C63FF"/>
<path d="M192.967 194.238V195.761H194.489V198.808H192.967V200.331H196.773V194.238H192.967Z" fill="#6C63FF"/>
<path d="M173.175 79.2185V80.7417H174.698V83.7887H173.175V85.3124H176.981V79.2185H173.175Z" fill="#6C63FF"/>
<path d="M173.175 118.066V119.589H174.698V122.636H173.175V124.16H176.981V118.066H173.175Z" fill="#6C63FF"/>
<path d="M173.175 127.968V129.492H174.698V132.539H173.175V134.062H176.981V127.968H173.175Z" fill="#6C63FF"/>
<path d="M173.175 147.773V149.296H174.698V152.343H173.175V153.866H176.981V147.773H173.175Z" fill="#6C63FF"/>
<path d="M173.175 175.956V177.48H174.698V180.527H173.175V182.05H176.981V175.956H173.175Z" fill="#6C63FF"/>
<path d="M173.175 184.335V185.858H174.698V188.905H173.175V190.429H176.981V184.335H173.175Z" fill="#6C63FF"/>
<path d="M216.564 32.7539H212.758V38.8476H216.564V32.7539Z" fill="#6C63FF"/>
<path d="M216.564 42.656H212.758V48.7497H216.564V42.656Z" fill="#6C63FF"/>
<path d="M216.564 53.3201H211.236V54.0818H216.564V53.3201Z" fill="#6C63FF"/>
<path d="M216.564 102.07H211.236V102.832H216.564V102.07Z" fill="#6C63FF"/>
<path d="M216.564 110.449H211.236V111.21H216.564V110.449Z" fill="#6C63FF"/>
<path d="M212.758 60.1758V61.699H214.281V64.7459H212.758V66.2692H216.564V60.1758H212.758Z" fill="#6C63FF"/>
<path d="M212.758 79.2185V80.7417H214.281V83.7887H212.758V85.3124H216.564V79.2185H212.758Z" fill="#6C63FF"/>
<path d="M212.758 118.066V119.589H214.281V122.636H212.758V124.16H216.564V118.066H212.758Z" fill="#6C63FF"/>
<path d="M259.953 99.0229H256.147V105.117H259.953V99.0229Z" fill="#6C63FF"/>
<path d="M259.953 108.925H256.147V115.019H259.953V108.925Z" fill="#6C63FF"/>
<path d="M259.953 119.589H254.625V120.351H259.953V119.589Z" fill="#6C63FF"/>
<path d="M259.953 168.339H254.625V169.101H259.953V168.339Z" fill="#6C63FF"/>
<path d="M259.953 176.718H254.625V177.48H259.953V176.718Z" fill="#6C63FF"/>
<path d="M256.147 126.445V127.968H257.67V131.015H256.147V132.539H259.953V126.445H256.147Z" fill="#6C63FF"/>
<path d="M256.147 145.488V147.011H257.67V150.058H256.147V151.581H259.953V145.488H256.147Z" fill="#6C63FF"/>
<path d="M256.147 184.335V185.858H257.67V188.905H256.147V190.429H259.953V184.335H256.147Z" fill="#6C63FF"/>
<path d="M272.132 32.7539H268.326V38.8476H272.132V32.7539Z" fill="#6C63FF"/>
<path d="M285.073 31.2305H281.267V37.3242H285.073V31.2305Z" fill="#6C63FF"/>
<path d="M291.924 31.2305H288.118V37.3242H291.924V31.2305Z" fill="#6C63FF"/>
<path d="M291.924 49.5115H288.118V55.6052H291.924V49.5115Z" fill="#6C63FF"/>
<path d="M299.536 40.3708H295.73V46.4646H299.536V40.3708Z" fill="#6C63FF"/>
<path d="M299.536 50.2732H295.73V56.3669H299.536V50.2732Z" fill="#6C63FF"/>
<path d="M291.924 69.3162H288.118V75.4099H291.924V69.3162Z" fill="#6C63FF"/>
<path d="M299.536 79.2183H295.73V85.312H299.536V79.2183Z" fill="#6C63FF"/>
<path d="M291.924 116.542H288.118V122.636H291.924V116.542Z" fill="#6C63FF"/>
<path d="M285.073 79.2183H281.267V85.312H285.073V79.2183Z" fill="#6C63FF"/>
<path d="M272.132 42.656H268.326V48.7497H272.132V42.656Z" fill="#6C63FF"/>
<path d="M272.132 137.87H268.326V143.964H272.132V137.87Z" fill="#6C63FF"/>
<path d="M272.132 157.675H268.326V163.769H272.132V157.675Z" fill="#6C63FF"/>
<path d="M272.132 167.577H268.326V173.671H272.132V167.577Z" fill="#6C63FF"/>
<path d="M272.132 53.3201H266.804V54.0818H272.132V53.3201Z" fill="#6C63FF"/>
<path d="M292.685 62.4607H287.357V63.2224H292.685V62.4607Z" fill="#6C63FF"/>
<path d="M272.132 102.07H266.804V102.832H272.132V102.07Z" fill="#6C63FF"/>
<path d="M272.132 110.449H266.804V111.21H272.132V110.449Z" fill="#6C63FF"/>
<path d="M292.685 159.198H287.357V159.96H292.685V159.198Z" fill="#6C63FF"/>
<path d="M286.595 177.48H281.267V178.241H286.595V177.48Z" fill="#6C63FF"/>
<path d="M268.326 60.1758V61.699H269.849V64.7459H268.326V66.2692H272.133V60.1758H268.326Z" fill="#6C63FF"/>
<path d="M281.267 49.5117V51.0349H282.789V54.0819H281.267V55.6051H285.073V49.5117H281.267Z" fill="#6C63FF"/>
<path d="M295.73 59.4136V60.9373H297.252V63.9842H295.73V65.5075H299.536V59.4136H295.73Z" fill="#6C63FF"/>
<path d="M295.73 89.1208V90.6441H297.252V93.691H295.73V95.2142H299.536V89.1208H295.73Z" fill="#6C63FF"/>
<path d="M295.73 99.0229V100.547H297.252V103.594H295.73V105.117H299.536V99.0229H295.73Z" fill="#6C63FF"/>
<path d="M295.73 68.5544V70.0777H297.252V73.1246H295.73V74.6483H299.536V68.5544H295.73Z" fill="#6C63FF"/>
<path d="M288.118 40.3708V41.8946H289.64V44.941H288.118V46.4647H291.924V40.3708H288.118Z" fill="#6C63FF"/>
<path d="M291.924 89.1206H288.118V95.2143H291.924V89.1206Z" fill="#6C63FF"/>
<path d="M291.924 107.402H288.118V113.496H291.924V107.402Z" fill="#6C63FF"/>
<path d="M288.118 98.2612V99.7845H289.64V102.831H288.118V104.355H291.924V98.2612H288.118Z" fill="#6C63FF"/>
<path d="M281.267 59.4136V60.9373H282.789V63.9842H281.267V65.5075H285.073V59.4136H281.267Z" fill="#6C63FF"/>
<path d="M281.267 69.3159V70.8396H282.789V73.8861H281.267V75.4098H285.073V69.3159H281.267Z" fill="#6C63FF"/>
<path d="M285.073 99.0229H281.267V105.117H285.073V99.0229Z" fill="#6C63FF"/>
<path d="M281.267 89.1208V90.6441H282.789V93.691H281.267V95.2142H285.073V89.1208H281.267Z" fill="#6C63FF"/>
<path d="M285.073 118.828H281.267V124.921H285.073V118.828Z" fill="#6C63FF"/>
<path d="M281.267 108.925V110.449H282.789V113.495H281.267V115.019H285.073V108.925H281.267Z" fill="#6C63FF"/>
<path d="M285.073 138.632H281.267V144.726H285.073V138.632Z" fill="#6C63FF"/>
<path d="M291.924 137.109H288.118V143.202H291.924V137.109Z" fill="#6C63FF"/>
<path d="M281.267 128.73V130.253H282.789V133.3H281.267V134.824H285.073V128.73H281.267Z" fill="#6C63FF"/>
<path d="M295.73 128.73V130.253H297.252V133.3H295.73V134.824H299.536V128.73H295.73Z" fill="#6C63FF"/>
<path d="M338.358 40.3708H334.552V46.4646H338.358V40.3708Z" fill="#6C63FF"/>
<path d="M338.358 50.2732H334.552V56.3669H338.358V50.2732Z" fill="#6C63FF"/>
<path d="M338.358 79.2183H334.552V85.312H338.358V79.2183Z" fill="#6C63FF"/>
<path d="M334.552 59.4136V60.9373H336.074V63.9842H334.552V65.5075H338.358V59.4136H334.552Z" fill="#6C63FF"/>
<path d="M334.552 89.1208V90.6441H336.074V93.691H334.552V95.2142H338.358V89.1208H334.552Z" fill="#6C63FF"/>
<path d="M334.552 99.0229V100.547H336.074V103.594H334.552V105.117H338.358V99.0229H334.552Z" fill="#6C63FF"/>
<path d="M334.552 68.5544V70.0777H336.074V73.1246H334.552V74.6483H338.358V68.5544H334.552Z" fill="#6C63FF"/>
<path d="M334.552 128.73V130.253H336.074V133.3H334.552V134.824H338.358V128.73H334.552Z" fill="#6C63FF"/>
<path d="M285.073 158.437H281.267V164.531H285.073V158.437Z" fill="#6C63FF"/>
<path d="M291.924 147.011H288.118V153.105H291.924V147.011Z" fill="#6C63FF"/>
<path d="M285.073 184.335H281.267V190.429H285.073V184.335Z" fill="#6C63FF"/>
<path d="M291.924 166.054H288.118V172.148H291.924V166.054Z" fill="#6C63FF"/>
<path d="M281.267 148.534V150.058H282.789V153.105H281.267V154.628H285.073V148.534H281.267Z" fill="#6C63FF"/>
<path d="M281.267 194.999V196.522H282.789V199.569H281.267V201.093H285.073V194.999H281.267Z" fill="#6C63FF"/>
<path d="M326.939 31.2305H323.133V37.3242H326.939V31.2305Z" fill="#6C63FF"/>
<path d="M326.939 79.2183H323.133V85.312H326.939V79.2183Z" fill="#6C63FF"/>
<path d="M328.462 177.48H323.133V178.241H328.462V177.48Z" fill="#6C63FF"/>
<path d="M323.134 49.5117V51.0349H324.656V54.0819H323.134V55.6051H326.94V49.5117H323.134Z" fill="#6C63FF"/>
<path d="M323.134 59.4136V60.9373H324.656V63.9842H323.134V65.5075H326.94V59.4136H323.134Z" fill="#6C63FF"/>
<path d="M323.134 69.3159V70.8396H324.656V73.8861H323.134V75.4098H326.94V69.3159H323.134Z" fill="#6C63FF"/>
<path d="M326.939 99.0229H323.133V105.117H326.939V99.0229Z" fill="#6C63FF"/>
<path d="M323.134 89.1208V90.6441H324.656V93.691H323.134V95.2142H326.94V89.1208H323.134Z" fill="#6C63FF"/>
<path d="M326.939 118.828H323.133V124.921H326.939V118.828Z" fill="#6C63FF"/>
<path d="M323.134 108.925V110.449H324.656V113.495H323.134V115.019H326.94V108.925H323.134Z" fill="#6C63FF"/>
<path d="M326.939 138.632H323.133V144.726H326.939V138.632Z" fill="#6C63FF"/>
<path d="M323.134 128.73V130.253H324.656V133.3H323.134V134.824H326.94V128.73H323.134Z" fill="#6C63FF"/>
<path d="M326.939 158.437H323.133V164.531H326.939V158.437Z" fill="#6C63FF"/>
<path d="M326.939 184.335H323.133V190.429H326.939V184.335Z" fill="#6C63FF"/>
<path d="M323.134 148.534V150.058H324.656V153.105H323.134V154.628H326.94V148.534H323.134Z" fill="#6C63FF"/>
<path d="M323.134 194.999V196.522H324.656V199.569H323.134V201.093H326.94V194.999H323.134Z" fill="#6C63FF"/>
<path d="M345.208 31.2305H341.402V37.3242H345.208V31.2305Z" fill="#6C63FF"/>
<path d="M345.208 79.2183H341.402V85.312H345.208V79.2183Z" fill="#6C63FF"/>
<path d="M346.731 177.48H341.402V178.241H346.731V177.48Z" fill="#6C63FF"/>
<path d="M341.403 49.5117V51.0349H342.925V54.0819H341.403V55.6051H345.209V49.5117H341.403Z" fill="#6C63FF"/>
<path d="M341.403 59.4136V60.9373H342.925V63.9842H341.403V65.5075H345.209V59.4136H341.403Z" fill="#6C63FF"/>
<path d="M341.403 69.3159V70.8396H342.925V73.8861H341.403V75.4098H345.209V69.3159H341.403Z" fill="#6C63FF"/>
<path d="M345.208 99.0229H341.402V105.117H345.208V99.0229Z" fill="#6C63FF"/>
<path d="M341.403 89.1208V90.6441H342.925V93.691H341.403V95.2142H345.209V89.1208H341.403Z" fill="#6C63FF"/>
<path d="M345.208 118.828H341.402V124.921H345.208V118.828Z" fill="#6C63FF"/>
<path d="M341.403 108.925V110.449H342.925V113.495H341.403V115.019H345.209V108.925H341.403Z" fill="#6C63FF"/>
<path d="M345.208 138.632H341.402V144.726H345.208V138.632Z" fill="#6C63FF"/>
<path d="M341.403 128.73V130.253H342.925V133.3H341.403V134.824H345.209V128.73H341.403Z" fill="#6C63FF"/>
<path d="M345.208 158.437H341.402V164.531H345.208V158.437Z" fill="#6C63FF"/>
<path d="M345.208 184.335H341.402V190.429H345.208V184.335Z" fill="#6C63FF"/>
<path d="M341.403 148.534V150.058H342.925V153.105H341.403V154.628H345.209V148.534H341.403Z" fill="#6C63FF"/>
<path d="M341.403 194.999V196.522H342.925V199.569H341.403V201.093H345.209V194.999H341.403Z" fill="#6C63FF"/>
<path d="M288.118 184.335V185.858H289.64V188.905H288.118V190.429H291.924V184.335H288.118Z" fill="#6C63FF"/>
<path d="M288.118 194.238V195.761H289.64V198.808H288.118V200.331H291.924V194.238H288.118Z" fill="#6C63FF"/>
<path d="M268.326 79.2185V80.7417H269.849V83.7887H268.326V85.3124H272.133V79.2185H268.326Z" fill="#6C63FF"/>
<path d="M268.326 118.066V119.589H269.849V122.636H268.326V124.16H272.133V118.066H268.326Z" fill="#6C63FF"/>
<path d="M268.326 127.968V129.492H269.849V132.539H268.326V134.062H272.133V127.968H268.326Z" fill="#6C63FF"/>
<path d="M268.326 147.773V149.296H269.849V152.343H268.326V153.866H272.133V147.773H268.326Z" fill="#6C63FF"/>
<path d="M268.326 175.956V177.48H269.849V180.527H268.326V182.05H272.133V175.956H268.326Z" fill="#6C63FF"/>
<path d="M268.326 184.335V185.858H269.849V188.905H268.326V190.429H272.133V184.335H268.326Z" fill="#6C63FF"/>
<path d="M311.715 32.7539H307.909V38.8476H311.715V32.7539Z" fill="#6C63FF"/>
<path d="M311.715 42.656H307.909V48.7497H311.715V42.656Z" fill="#6C63FF"/>
<path d="M311.715 53.3201H306.387V54.0818H311.715V53.3201Z" fill="#6C63FF"/>
<path d="M311.715 102.07H306.387V102.832H311.715V102.07Z" fill="#6C63FF"/>
<path d="M311.715 110.449H306.387V111.21H311.715V110.449Z" fill="#6C63FF"/>
<path d="M307.909 60.1758V61.699H309.432V64.7459H307.909V66.2692H311.715V60.1758H307.909Z" fill="#6C63FF"/>
<path d="M307.909 79.2185V80.7417H309.432V83.7887H307.909V85.3124H311.715V79.2185H307.909Z" fill="#6C63FF"/>
<path d="M307.909 118.066V119.589H309.432V122.636H307.909V124.16H311.715V118.066H307.909Z" fill="#6C63FF"/>
<path d="M355.104 99.0229H351.298V105.117H355.104V99.0229Z" fill="#6C63FF"/>
<path d="M355.104 108.925H351.298V115.019H355.104V108.925Z" fill="#6C63FF"/>
<path d="M355.104 119.589H349.776V120.351H355.104V119.589Z" fill="#6C63FF"/>
<path d="M355.104 168.339H349.776V169.101H355.104V168.339Z" fill="#6C63FF"/>
<path d="M355.104 176.718H349.776V177.48H355.104V176.718Z" fill="#6C63FF"/>
<path d="M351.298 126.445V127.968H352.821V131.015H351.298V132.539H355.104V126.445H351.298Z" fill="#6C63FF"/>
<path d="M351.298 145.488V147.011H352.821V150.058H351.298V151.581H355.104V145.488H351.298Z" fill="#6C63FF"/>
<path d="M351.298 184.335V185.858H352.821V188.905H351.298V190.429H355.104V184.335H351.298Z" fill="#6C63FF"/>
<path d="M190.153 199.579V225.245L193.606 241.04C193.606 241.04 193.113 250.912 193.606 253.874C194.099 256.835 193.113 261.771 190.153 261.771C187.194 261.771 185.714 269.175 185.714 269.175C185.714 269.175 184.727 272.137 182.261 272.63C179.795 273.124 179.795 272.63 179.795 272.63L177.822 277.566L136.881 304.714L144.773 324.457C144.773 324.457 157.104 320.015 158.091 318.534C159.078 317.053 167.463 320.509 167.463 317.053C167.463 313.598 168.943 304.714 171.902 304.22C174.862 303.726 199.525 292.374 199.525 292.374C199.525 292.374 212.35 278.06 213.337 272.63C214.323 267.201 218.762 251.899 218.762 251.899L231.094 272.63V314.092L229.121 336.303L250.825 333.342C250.825 333.342 248.852 319.521 250.825 317.547C252.798 315.573 255.757 291.88 253.784 288.919C251.811 285.957 254.771 272.63 253.784 270.656C252.798 268.681 253.291 254.367 250.825 250.419C248.358 246.47 233.56 205.995 233.56 205.995L190.153 199.579Z" fill="#2F2E41"/>
<path d="M232.081 335.316C232.081 335.316 224.682 347.656 229.614 349.137C234.547 350.617 243.919 349.137 244.905 349.137C245.892 349.137 263.649 349.63 263.649 349.63C263.649 349.63 275.488 347.162 275.488 343.707C275.488 340.252 268.089 340.252 265.622 339.758C263.156 339.265 247.865 333.342 247.865 333.342L232.081 335.316Z" fill="#2F2E41"/>
<path d="M139.146 305.27C139.146 305.27 124.889 303.381 125.492 308.499C126.095 313.617 131.178 321.634 131.57 322.54C131.835 323.153 134.951 330.92 136.934 335.869C138.368 339.498 140.522 342.798 143.266 345.57C145.205 347.509 147.318 349.064 148.704 348.463C151.873 347.09 148.932 340.296 148.404 337.835C147.877 335.374 147.23 318.979 147.23 318.979L139.146 305.27Z" fill="#2F2E41"/>
<path d="M238.246 117.889L254.031 81.3635C254.031 81.3635 252.551 77.9083 249.098 78.4019C249.098 78.4019 244.412 66.3089 235.533 66.3089C235.533 66.3089 222.215 58.905 218.269 66.3089C218.269 66.3089 209.884 73.7128 210.377 80.6231C210.87 87.5334 211.364 92.4693 211.364 92.4693C211.364 92.4693 203.471 93.4564 204.951 97.4052C206.431 101.354 206.924 101.354 204.951 102.835L202.978 104.315C202.978 104.315 162.037 141.335 184.727 195.63L186.7 204.021V211.918C186.7 211.918 236.52 212.412 236.52 211.918C236.52 211.425 235.533 208.463 237.506 206.489C239.48 204.515 239.48 201.553 239.48 201.553C239.48 201.553 237.506 191.681 238.493 188.72C239.48 185.758 239.973 172.925 238 169.963C236.027 167.002 237.013 143.309 237.013 143.309L241.453 134.918L239.973 129.982L238.493 125.046L238.246 117.889Z" fill="#8985A8"/>
<path opacity="0.1" d="M234.054 216.854C234.054 216.854 228.134 200.566 228.628 197.604C229.121 194.643 227.641 188.719 227.641 188.719L225.668 148.739C225.668 148.739 234.054 113.2 215.31 107.277C215.31 107.277 210.567 109.348 206.68 116.012C202.838 117.725 198.174 122.06 197.059 132.944C195.086 152.194 203.964 201.553 208.404 209.944C212.843 218.335 215.803 224.258 215.803 224.258L220.443 222.194C220.634 222.575 220.735 222.777 220.735 222.777L234.054 216.854Z" fill="black"/>
<path d="M236.767 113.447C237.584 113.447 238.246 112.784 238.246 111.966C238.246 111.148 237.584 110.485 236.767 110.485C235.949 110.485 235.287 111.148 235.287 111.966C235.287 112.784 235.949 113.447 236.767 113.447Z" fill="#F2F2F2"/>
<path d="M237.26 111.966H236.273V135.165H237.26V111.966Z" fill="#3F3D56"/>
<path d="M219.009 218.582L222.955 226.973C222.955 226.973 231.834 224.011 231.834 222.53C231.834 221.05 227.888 214.633 227.888 214.633L219.009 218.582Z" fill="#FFB8B8"/>
<path d="M213.337 107.277C213.337 107.277 201.991 112.213 200.018 131.463C198.045 150.713 206.924 200.072 211.363 208.463C215.803 216.854 218.762 222.777 218.762 222.777L232.081 216.854C232.081 216.854 226.161 200.566 226.655 197.604C227.148 194.643 225.668 188.719 225.668 188.719L223.695 148.739C223.695 148.739 232.081 113.2 213.337 107.277Z" fill="#8985A8"/>
</svg>
